<mxfile host="app.diagrams.net" agent="Mozilla/5.0 (Windows NT 10.0; Win64; x64) AppleWebKit/537.36 (KHTML, like Gecko) Chrome/133.0.0.0 Safari/537.36" version="26.0.14">
  <diagram id="WI9T0HZ2pTsCkuznbFz-" name="Page-1">
    <mxGraphModel dx="993" dy="515" grid="1" gridSize="10" guides="1" tooltips="1" connect="1" arrows="1" fold="1" page="1" pageScale="1" pageWidth="1169" pageHeight="827" math="0" shadow="0">
      <root>
        <mxCell id="0" />
        <mxCell id="1" parent="0" />
        <mxCell id="FykbhqTIrsHI60LTdgqf-15" style="edgeStyle=orthogonalEdgeStyle;rounded=1;orthogonalLoop=1;jettySize=auto;html=1;exitX=1;exitY=0.5;exitDx=0;exitDy=0;entryX=0;entryY=0.5;entryDx=0;entryDy=0;curved=0;sketch=1;curveFitting=1;jiggle=2;shadow=1;" edge="1" parent="1" source="FykbhqTIrsHI60LTdgqf-2" target="FykbhqTIrsHI60LTdgqf-9">
          <mxGeometry relative="1" as="geometry" />
        </mxCell>
        <mxCell id="FykbhqTIrsHI60LTdgqf-16" style="edgeStyle=orthogonalEdgeStyle;rounded=1;orthogonalLoop=1;jettySize=auto;html=1;exitX=1;exitY=0.5;exitDx=0;exitDy=0;entryX=0;entryY=0.75;entryDx=0;entryDy=0;curved=0;sketch=1;curveFitting=1;jiggle=2;shadow=1;" edge="1" parent="1" source="FykbhqTIrsHI60LTdgqf-2" target="FykbhqTIrsHI60LTdgqf-6">
          <mxGeometry relative="1" as="geometry" />
        </mxCell>
        <mxCell id="FykbhqTIrsHI60LTdgqf-17" style="edgeStyle=orthogonalEdgeStyle;rounded=1;orthogonalLoop=1;jettySize=auto;html=1;exitX=1;exitY=0.5;exitDx=0;exitDy=0;entryX=0;entryY=0.5;entryDx=0;entryDy=0;curved=0;sketch=1;curveFitting=1;jiggle=2;shadow=1;" edge="1" parent="1" source="FykbhqTIrsHI60LTdgqf-2" target="FykbhqTIrsHI60LTdgqf-8">
          <mxGeometry relative="1" as="geometry" />
        </mxCell>
        <mxCell id="FykbhqTIrsHI60LTdgqf-18" style="edgeStyle=orthogonalEdgeStyle;rounded=1;orthogonalLoop=1;jettySize=auto;html=1;exitX=1;exitY=0.5;exitDx=0;exitDy=0;entryX=0;entryY=0.5;entryDx=0;entryDy=0;curved=0;sketch=1;curveFitting=1;jiggle=2;shadow=1;" edge="1" parent="1" source="FykbhqTIrsHI60LTdgqf-2" target="FykbhqTIrsHI60LTdgqf-7">
          <mxGeometry relative="1" as="geometry" />
        </mxCell>
        <mxCell id="FykbhqTIrsHI60LTdgqf-2" value="{&lt;div&gt;Application Name:&lt;div&gt;Description:&lt;/div&gt;&lt;div&gt;}&lt;/div&gt;&lt;/div&gt;" style="whiteSpace=wrap;html=1;sketch=1;curveFitting=1;jiggle=2;shadow=1;fillColor=#f8cecc;strokeColor=#b85450;" vertex="1" parent="1">
          <mxGeometry x="190" y="235" width="130" height="90" as="geometry" />
        </mxCell>
        <mxCell id="FykbhqTIrsHI60LTdgqf-25" style="edgeStyle=orthogonalEdgeStyle;rounded=0;orthogonalLoop=1;jettySize=auto;html=1;exitX=1;exitY=0.5;exitDx=0;exitDy=0;entryX=0;entryY=0.5;entryDx=0;entryDy=0;sketch=1;curveFitting=1;jiggle=2;shadow=1;" edge="1" parent="1" source="FykbhqTIrsHI60LTdgqf-4" target="FykbhqTIrsHI60LTdgqf-24">
          <mxGeometry relative="1" as="geometry" />
        </mxCell>
        <mxCell id="FykbhqTIrsHI60LTdgqf-4" value="Single API Need to be integrated from ServiceNow Side" style="whiteSpace=wrap;html=1;sketch=1;curveFitting=1;jiggle=2;shadow=1;fillColor=#f8cecc;strokeColor=#b85450;" vertex="1" parent="1">
          <mxGeometry x="790" y="250" width="120" height="60" as="geometry" />
        </mxCell>
        <mxCell id="FykbhqTIrsHI60LTdgqf-23" style="edgeStyle=orthogonalEdgeStyle;rounded=1;orthogonalLoop=1;jettySize=auto;html=1;exitX=1;exitY=0.5;exitDx=0;exitDy=0;entryX=0;entryY=0.5;entryDx=0;entryDy=0;curved=0;sketch=1;curveFitting=1;jiggle=2;shadow=1;" edge="1" parent="1" source="FykbhqTIrsHI60LTdgqf-6" target="FykbhqTIrsHI60LTdgqf-4">
          <mxGeometry relative="1" as="geometry" />
        </mxCell>
        <mxCell id="FykbhqTIrsHI60LTdgqf-6" value="Select Index4 based on application name found" style="whiteSpace=wrap;html=1;sketch=1;curveFitting=1;jiggle=2;shadow=1;" vertex="1" parent="1">
          <mxGeometry x="480" y="383" width="120" height="60" as="geometry" />
        </mxCell>
        <mxCell id="FykbhqTIrsHI60LTdgqf-22" style="edgeStyle=orthogonalEdgeStyle;rounded=1;orthogonalLoop=1;jettySize=auto;html=1;exitX=1;exitY=0.5;exitDx=0;exitDy=0;entryX=0;entryY=0.5;entryDx=0;entryDy=0;curved=0;sketch=1;curveFitting=1;jiggle=2;shadow=1;" edge="1" parent="1" source="FykbhqTIrsHI60LTdgqf-7" target="FykbhqTIrsHI60LTdgqf-4">
          <mxGeometry relative="1" as="geometry" />
        </mxCell>
        <mxCell id="FykbhqTIrsHI60LTdgqf-7" value="&lt;br&gt;&lt;span style=&quot;color: rgb(0, 0, 0); font-family: Helvetica; font-size: 12px; font-style: normal; font-variant-ligatures: normal; font-variant-caps: normal; font-weight: 400; letter-spacing: normal; orphans: 2; text-align: center; text-indent: 0px; text-transform: none; widows: 2; word-spacing: 0px; -webkit-text-stroke-width: 0px; white-space: normal; background-color: rgb(251, 251, 251); text-decoration-thickness: initial; text-decoration-style: initial; text-decoration-color: initial; float: none; display: inline !important;&quot;&gt;Select Index3 based on application name found&lt;/span&gt;&lt;div&gt;&lt;br/&gt;&lt;/div&gt;" style="whiteSpace=wrap;html=1;sketch=1;curveFitting=1;jiggle=2;shadow=1;" vertex="1" parent="1">
          <mxGeometry x="480" y="300" width="120" height="60" as="geometry" />
        </mxCell>
        <mxCell id="FykbhqTIrsHI60LTdgqf-21" style="edgeStyle=orthogonalEdgeStyle;rounded=1;orthogonalLoop=1;jettySize=auto;html=1;exitX=1;exitY=0.5;exitDx=0;exitDy=0;entryX=0;entryY=0.5;entryDx=0;entryDy=0;curved=0;sketch=1;curveFitting=1;jiggle=2;shadow=1;" edge="1" parent="1" source="FykbhqTIrsHI60LTdgqf-8" target="FykbhqTIrsHI60LTdgqf-4">
          <mxGeometry relative="1" as="geometry" />
        </mxCell>
        <mxCell id="FykbhqTIrsHI60LTdgqf-8" value="&lt;br&gt;&lt;span style=&quot;color: rgb(0, 0, 0); font-family: Helvetica; font-size: 12px; font-style: normal; font-variant-ligatures: normal; font-variant-caps: normal; font-weight: 400; letter-spacing: normal; orphans: 2; text-align: center; text-indent: 0px; text-transform: none; widows: 2; word-spacing: 0px; -webkit-text-stroke-width: 0px; white-space: normal; background-color: rgb(251, 251, 251); text-decoration-thickness: initial; text-decoration-style: initial; text-decoration-color: initial; float: none; display: inline !important;&quot;&gt;Select Index2 based on application name found&lt;/span&gt;&lt;div&gt;&lt;br/&gt;&lt;/div&gt;" style="whiteSpace=wrap;html=1;sketch=1;curveFitting=1;jiggle=2;shadow=1;" vertex="1" parent="1">
          <mxGeometry x="480" y="200" width="120" height="60" as="geometry" />
        </mxCell>
        <mxCell id="FykbhqTIrsHI60LTdgqf-19" style="edgeStyle=orthogonalEdgeStyle;rounded=1;orthogonalLoop=1;jettySize=auto;html=1;exitX=1;exitY=0.5;exitDx=0;exitDy=0;entryX=0;entryY=0.5;entryDx=0;entryDy=0;curved=0;shape=link;sketch=1;curveFitting=1;jiggle=2;shadow=1;" edge="1" parent="1" source="FykbhqTIrsHI60LTdgqf-9" target="FykbhqTIrsHI60LTdgqf-4">
          <mxGeometry relative="1" as="geometry" />
        </mxCell>
        <mxCell id="FykbhqTIrsHI60LTdgqf-9" value="Select Index1 based on application name found" style="whiteSpace=wrap;html=1;sketch=1;curveFitting=1;jiggle=2;shadow=1;" vertex="1" parent="1">
          <mxGeometry x="480" y="104.56" width="120" height="60" as="geometry" />
        </mxCell>
        <mxCell id="FykbhqTIrsHI60LTdgqf-24" value="GenAI Response" style="whiteSpace=wrap;html=1;sketch=1;curveFitting=1;jiggle=2;shadow=1;" vertex="1" parent="1">
          <mxGeometry x="990" y="250" width="120" height="60" as="geometry" />
        </mxCell>
      </root>
    </mxGraphModel>
  </diagram>
</mxfile>
